PathFileType	4	(X/Y/Z)	/Users/niels/Desktop/University/Third Semester/Perception and Action/Exam/Gymnastics Motion Tracking/Code for Gym Tracking/Analyzed Data/Webcam_Backflip/id7_5_trajectory_Sports2D/id7_5_trajectory_Sports2D_px_person00.trc
DataRate	CameraRate	NumFrames	NumMarkers	Units	OrigDataRate	OrigDataStartFrame	OrigNumFrames
29.81132075471698	29.81132075471698	7	22	m	29.81132075471698	39	159
Frame#	Time	Hip			RHip			RKnee			RAnkle			RBigToe			RSmallToe			RHeel			LHip			LKnee			LAnkle			LBigToe			LSmallToe			LHeel			Neck			Head			Nose			RShoulder			RElbow			RWrist			LShoulder			LElbow			LWrist		
		X1	Y1	Z1	X2	Y2	Z2	X3	Y3	Z3	X4	Y4	Z4	X5	Y5	Z5	X6	Y6	Z6	X7	Y7	Z7	X8	Y8	Z8	X9	Y9	Z9	X10	Y10	Z10	X11	Y11	Z11	X12	Y12	Z12	X13	Y13	Z13	X14	Y14	Z14	X15	Y15	Z15	X16	Y16	Z16	X17	Y17	Z17	X18	Y18	Z18	X19	Y19	Z19	X20	Y20	Z20	X21	Y21	Z21	X22	Y22	Z22
39	1.3082278481012657	0.9287449888664077	-0.5328878466958428	0.0	0.9313335547701795	-0.5334144622380228	0.0	0.9353796595256776	-0.6494463174593728	0.0	0.9167988540666073	-0.7619562408968636	0.0	0.9565322071402909	-0.7871019354902974	0.0	0.9473973013795661	-0.7898893223473791	0.0	0.90486623808532	-0.7757412196912112	0.0	0.928512293102789	-0.5320855571037026	0.0	0.9284709958538014	-0.6478189470833373	0.0	0.9081478177572389	-0.7568255850027976	0.0	0.9497364316881252	-0.7806381987898964	0.0	0.9404768058037535	-0.7759359534733367	0.0	0.8932201974507563	-0.7702369305710596	0.0	1.047584954643997	-0.4433954082733066	0.0	1.111723348425189	-0.4370068125032861	0.0	1.0807683133315342	-0.4593863497355102	0.0	1.0391641825736504	-0.4433555458629052	0.0	1.0917683757151326	-0.4625531975261389	0.0	1.1511239534278743	-0.46801335853885856	0.0	1.0275022598006271	-0.4364163478346889	0.0	1.0171106423501703	-0.4528687913771271	0.0	1.0435513044201719	-0.45843508957964535	0.0
40	1.3417721518987342	0.9297167576329564	-0.577705166697214	0.0	0.9337951950493456	-0.5787955542923187	0.0	0.947927346870045	-0.6945819175339006	0.0	0.9337880788133499	-0.8054840460706653	0.0	0.9746352931497179	-0.825088998488576	0.0	0.9647153917325195	-0.8293804712180854	0.0	0.9224030463865186	-0.8183207874804905	0.0	0.9268534546751477	-0.5760114484178195	0.0	0.9361813650494676	-0.6922844100824159	0.0	0.920119932465316	-0.7997138818373648	0.0	0.9610566884421997	-0.8171664219957394	0.0	0.9502130565858058	-0.8128093176235736	0.0	0.9062388274119515	-0.8126265199030297	0.0	1.0344782949420128	-0.4655818049999849	0.0	1.0961648927790053	-0.44884386355719075	0.0	1.0692921874468544	-0.47549599865093173	0.0	1.027206094168587	-0.4693526989427034	0.0	1.0907569431385025	-0.4785486327522755	0.0	1.151649690484291	-0.4655223688049896	0.0	1.0131271667806945	-0.46030110417875125	0.0	1.0150222323665306	-0.4595066355304659	0.0	1.0396487729367128	-0.4493205440519862	0.0
41	1.3753164556962025	0.9316437532493279	-0.6168060206393935	0.0	0.9374545401553082	-0.618437625711995	0.0	0.9590989492833256	-0.7333727956972594	0.0	0.9437885026177919	-0.8395647878913005	0.0	0.9854820969547444	-0.8551186057521604	0.0	0.9743956856786361	-0.8604064140987552	0.0	0.9323059022390051	-0.8500447368108173	0.0	0.9262100883059156	-0.6145093353554723	0.0	0.941802930306199	-0.7305426860518883	0.0	0.9250531710485098	-0.8332989144752658	0.0	0.9634894195554298	-0.8457983154492971	0.0	0.9516947129281714	-0.8416965193439128	0.0	0.9121247538994969	-0.8446331554440125	0.0	1.0215366474445846	-0.48773670666628066	0.0	1.0793022550896079	-0.46178965922932635	0.0	1.0575329629316712	-0.4914558007461139	0.0	1.0160200992981119	-0.49523322379129237	0.0	1.0853623924473432	-0.4942080486739906	0.0	1.14306343961986	-0.46438637549955963	0.0	0.9992796722881531	-0.48440366205634483	0.0	1.0114352175709305	-0.46739165039854363	0.0	1.0353461821999912	-0.4438923158352696	0.0
42	1.4088607594936708	0.9339269510027105	-0.6464943127784378	0.0	0.9415018788252267	-0.6485349768500612	0.0	0.9679467036358419	-0.7621973636319911	0.0	0.9483195157422735	-0.8627443698025475	0.0	0.9909035788111098	-0.8754240961001787	0.0	0.9784571725674163	-0.8812329091938446	0.0	0.9364903440936803	-0.8704253920610384	0.0	0.9264710373980127	-0.6439496819081186	0.0	0.9453434340921795	-0.7591210811833855	0.0	0.9251152044906829	-0.8562635108641752	0.0	0.960233046801297	-0.865360309979245	0.0	0.9479998649487312	-0.861365395059615	0.0	0.9130497524368764	-0.8658291462369373	0.0	1.010180899232075	-0.506074384013757	0.0	1.0625871969369587	-0.47225773125134574	0.0	1.0467389580881443	-0.5036768588770298	0.0	1.0065996633649887	-0.5168996185212094	0.0	1.0778317337543515	-0.5074936382654912	0.0	1.1299328814479002	-0.4644537918964456	0.0	0.9872010448951256	-0.5049672979614802	0.0	1.0070006049843	-0.4770510907731648	0.0	1.032311839510698	-0.4449938967532523	0.0
43	1.4424050632911392	0.9361705965921683	-0.6638080380741318	0.0	0.9452219386683534	-0.666145495902062	0.0	0.9740466947401332	-0.7783809263036687	0.0	0.9494471244201617	-0.87442986274703	0.0	0.9927152345274365	-0.8851719074434417	0.0	0.9791686237442769	-0.891162122149455	0.0	0.9374904072145681	-0.8799481484039672	0.0	0.9274454396773065	-0.6613163729217144	0.0	0.9473792064742369	-0.7753609441491962	0.0	0.9230016076671748	-0.8679073687642708	0.0	0.9550347866797235	-0.8753649214267331	0.0	0.9427734104823537	-0.8711865233007071	0.0	0.9115977090275229	-0.8762980673295884	0.0	1.001484640373842	-0.5168562195940469	0.0	1.0471927865317192	-0.47670645710167864	0.0	1.0378242229130394	-0.5089912124987842	0.0	0.9995442954876071	-0.5304563333008772	0.0	1.0703388598343015	-0.5157873577719431	0.0	1.1171012751517029	-0.4642076697633718	0.0	0.9779811520856634	-0.5181031659364167	0.0	1.0045586166254945	-0.48592310425388285	0.0	1.0335618907326987	-0.44971089130978675	0.0
44	1.4759493670886075	0.9383056764858897	-0.6672964833349532	0.0	0.9482429778819231	-0.6698477057445753	0.0	0.9775128495596305	-0.7807744288570385	0.0	0.9490082835034013	-0.8749528773562183	0.0	0.9924542845194314	-0.8846104797391159	0.0	0.9784929610777156	-0.8906144812425494	0.0	0.9373368642415135	-0.8796641959327044	0.0	0.929019866455018	-0.6649922978753777	0.0	0.9486332776568329	-0.7779828934581635	0.0	0.9207828301595333	-0.8682400608850139	0.0	0.9508320205421461	-0.8759074210129574	0.0	0.9388637559798725	-0.8711747509785753	0.0	0.9097299175813401	-0.8763889616172461	0.0	0.9959438199886272	-0.517293686213089	0.0	1.0342750371479756	-0.4724064702441886	0.0	1.0313256396985904	-0.5051508227724986	0.0	0.9949747450126468	-0.53297511305324	0.0	1.064267843548829	-0.5163173534402642	0.0	1.1080277868711124	-0.46109621985215976	0.0	0.9722857851988504	-0.5209153755783147	0.0	1.0068282767128724	-0.4900173340870705	0.0	1.040704744348937	-0.4523615968513485	0.0
45	1.5094936708860758	0.9404839567136252	-0.6573414223871783	0.0	0.9505381796293023	-0.6599958153088362	0.0	0.9789013292066389	-0.7699294450327551	0.0	0.9483300930708871	-0.8653786417307744	0.0	0.991319055188869	-0.874872371525375	0.0	0.9777261762114209	-0.8808001669158004	0.0	0.9371642977641815	-0.8707489390577852	0.0	0.9311996765651298	-0.6551769147486682	0.0	0.9497272645526468	-0.7674158435884237	0.0	0.9195668379340176	-0.8579802354929803	0.0	0.9490252882725355	-0.86741626755465	0.0	0.9375420440119171	-0.8618607995594398	0.0	0.908508809652824	-0.8666600684508843	0.0	0.9933500867641636	-0.5064064077220559	0.0	1.024836690395217	-0.45813873976495273	0.0	1.0272974405654283	-0.4912685994763338	0.0	0.9925629632582306	-0.5232822091986838	0.0	1.0601225959623168	-0.506954032241308	0.0	1.1038999654298263	-0.45228991472807434	0.0	0.9700903524592941	-0.5122930076467013	0.0	1.014073409422501	-0.48593561068124674	0.0	1.0528902378572136	-0.44804243523572673	0.0
